<svg xmlns="http://www.w3.org/2000/svg" viewBox="0 0 160 110" width="160" height="110">
  <!-- Body -->
  <path d="M 8,8 L 148,8 Q 158,8 158,18 L 158,90 Q 158,100 148,100 L 8,100 Q 3,100 3,90 L 3,18 Q 3,8 8,8 Z" fill="#1a1a1a" stroke="#3a3a3a" stroke-width="1.5"/>
  <!-- Lid highlight -->
  <path d="M 8,8 L 148,8 Q 155,8 157,14 L 9,14 Q 4,14 3,18 L 3,12 Q 4,8 8,8 Z" fill="#3a3a3a"/>
  <!-- Keys backing -->
  <rect x="6" y="76" width="146" height="22" rx="2" fill="#f0f0f0" stroke="#1a1a1a" stroke-width="1"/>
  <!-- White key dividers -->
  <line x1="27" y1="76" x2="27" y2="98" stroke="#ccc" stroke-width="1"/>
  <line x1="48" y1="76" x2="48" y2="98" stroke="#ccc" stroke-width="1"/>
  <line x1="69" y1="76" x2="69" y2="98" stroke="#ccc" stroke-width="1"/>
  <line x1="90" y1="76" x2="90" y2="98" stroke="#ccc" stroke-width="1"/>
  <line x1="111" y1="76" x2="111" y2="98" stroke="#ccc" stroke-width="1"/>
  <line x1="132" y1="76" x2="132" y2="98" stroke="#ccc" stroke-width="1"/>
  <!-- Black keys -->
  <rect x="17" y="76" width="12" height="14" rx="1" fill="#1a1a1a"/>
  <rect x="38" y="76" width="12" height="14" rx="1" fill="#1a1a1a"/>
  <rect x="59" y="76" width="12" height="14" rx="1" fill="#1a1a1a"/>
  <rect x="80" y="76" width="12" height="14" rx="1" fill="#1a1a1a"/>
  <rect x="101" y="76" width="12" height="14" rx="1" fill="#1a1a1a"/>
  <rect x="122" y="76" width="12" height="14" rx="1" fill="#1a1a1a"/>
  <!-- Music stand hint -->
  <rect x="62" y="18" width="36" height="24" rx="2" fill="#2a2a2a" stroke="#444" stroke-width="1"/>
  <line x1="68" y1="24" x2="92" y2="24" stroke="#555" stroke-width="1.5"/>
  <line x1="68" y1="29" x2="92" y2="29" stroke="#555" stroke-width="1.5"/>
  <line x1="68" y1="34" x2="92" y2="34" stroke="#555" stroke-width="1.5"/>
  <!-- Legs -->
  <rect x="8" y="94" width="9" height="14" rx="2" fill="#111"/>
  <rect x="143" y="94" width="9" height="14" rx="2" fill="#111"/>
  <rect x="75" y="96" width="9" height="12" rx="2" fill="#111"/>
</svg>
